<svg xmlns="http://www.w3.org/2000/svg" viewBox="0 0 1080 1080"><defs><style>.cls-1{fill:#fff;}</style></defs><g id="night_blue_cse" data-name="night blue cse"><path class="cls-1" d="M286.6,449.59c0-176.77,143.29-320.06,320-320.06a324.78,324.78,0,0,1,32.89,1.67.93.93,0,0,0,.34-1.83,319.13,319.13,0,0,0-59.71-9.27c-187.41-11.19-345,141.81-339.28,329.47C245.29,593,344.1,712.72,477.27,748.62a2.86,2.86,0,0,0,1.88-5.38C365.84,694,286.6,581,286.6,449.59Z"/><path class="cls-1" d="M735.33,751.26c-.65,0-1.3,0-2,0a38.78,38.78,0,0,1-36.8-40.66c.71-14.1,1.54-26.48,2.34-38.45.78-11.6,1.59-23.59,2.3-37.44a85,85,0,0,1,8.31-32.56c8.74-18.2,17.44-36.68,25.85-54.55l4.21-8.94a14.36,14.36,0,0,0-11.21-20.37L418.13,479.63a56.73,56.73,0,0,1-49.75-55C365.74,307,449.76,203.93,563.83,184.93c54.51-9.08,111.06,2.14,159.21,31.57A240.13,240.13,0,0,1,825.53,345.43a38.77,38.77,0,1,1-73.59,24.46c-24.72-74.37-100.11-121-175.37-108.46-62.74,10.44-111.88,59.28-126.35,120.45a21.23,21.23,0,0,0,18.12,25.86l327,40.69a50.12,50.12,0,0,1,39,71.46c-10,20.67-19.53,41-28.79,60.69-8.47,18-17.24,36.61-26.1,55.07a7.79,7.79,0,0,0-.77,3c-.74,14.46-1.57,26.76-2.37,38.65-.82,12.18-1.6,23.69-2.27,37.11A38.77,38.77,0,0,1,735.33,751.26Z"/><path class="cls-1" d="M564.7,833.16l106.56-38.95a23.18,23.18,0,0,0-15.91-43.54l-106.56,39A23.17,23.17,0,0,0,535,819.34h0A23.17,23.17,0,0,0,564.7,833.16Z"/><path class="cls-1" d="M751.72,807.42a24.82,24.82,0,0,0-32.35-13.62L560.16,858.67a24.82,24.82,0,1,0,18.73,46L738.1,839.77A24.81,24.81,0,0,0,751.72,807.42Z"/><path class="cls-1" d="M739,889.52a25.88,25.88,0,0,0-33.19-15.42l-99,36.19a25.88,25.88,0,0,0,17.77,48.61l99-36.19A25.88,25.88,0,0,0,739,889.52Z"/></g></svg>